<svg id="logo-sb-intuitions" xmlns="http://www.w3.org/2000/svg" xmlns:xlink="http://www.w3.org/1999/xlink" width="200" height="22" viewBox="0 0 200 22">
  <defs>
    <clipPath id="clip-path">
      <rect id="長方形_4" data-name="長方形 4" width="199.227" height="22" fill="#b2b2b2"/>
    </clipPath>
  </defs>
  <rect id="長方形_1" data-name="長方形 1" width="29.979" height="7.374" transform="translate(0 0.009)" fill="#bbbdbe"/>
  <rect id="長方形_2" data-name="長方形 2" width="29.979" height="7.382" transform="translate(0 14.618)" fill="#bbbdbe"/>
  <g id="グループ_2" data-name="グループ 2" transform="translate(0.773)">
    <g id="グループ_1" data-name="グループ 1" clip-path="url(#clip-path)">
      <path id="パス_1" data-name="パス 1" d="M137.327,3.153c0-.828.114-1.036.862-1.036h2.8a6.5,6.5,0,0,1,4.281,1.155,3.9,3.9,0,0,1,1.114,2.7,4.054,4.054,0,0,1-1.315,3.213,7.445,7.445,0,0,1-4.8,1.306h-2.945ZM135.117,19c0,2.13-.182,2.251-2.4,2.251v.926H142.4c3.091,0,4.811-.757,6-1.889a5.7,5.7,0,0,0,1.635-4.127,4.723,4.723,0,0,0-1.877-3.658,8.385,8.385,0,0,0-4.948-1.537v-.045a7.51,7.51,0,0,0,4-1.706,4.475,4.475,0,0,0,1.474-3.438,4.167,4.167,0,0,0-1.9-3.505c-1.565-1.055-3.391-1.3-6.124-1.3h-7.946v.86c2.216,0,2.4.155,2.4,2.3Zm2.21-7.395h3.644c2.428,0,4.1.425,5.085,1.216a4.058,4.058,0,0,1,1.675,3.3,4.79,4.79,0,0,1-1.183,3.412c-.97,1.033-2.363,1.489-4.446,1.489h-3.7c-.92,0-1.074-.21-1.074-1.454Z" transform="translate(-78.71 -0.568)" fill="#393332"/>
      <path id="パス_2" data-name="パス 2" d="M104.954,5.249c-.614-3.1-1.279-4.124-4.775-4.124a5.367,5.367,0,0,0-3.516,1.126,2.78,2.78,0,0,0-1.026,2.276,3.658,3.658,0,0,0,.995,2.384,14.924,14.924,0,0,0,3.749,2.353c2.318,1.221,4.081,1.9,5.344,3.363a5.637,5.637,0,0,1,1.251,3.528,5.221,5.221,0,0,1-1.659,3.97,8.476,8.476,0,0,1-5.849,1.865,16.512,16.512,0,0,1-5.531-1.011,28.817,28.817,0,0,0-.979-4.426l1.036-.258c.954,3.678,2.607,4.558,5.74,4.558a5.7,5.7,0,0,0,3.552-1.1,3.749,3.749,0,0,0,1.528-3.11,3.729,3.729,0,0,0-.946-2.634A13.2,13.2,0,0,0,99.585,11.3c-1.807-.922-4.287-2.283-5.145-3.525a4.884,4.884,0,0,1-.889-2.854A4.307,4.307,0,0,1,95.323,1.4a7.969,7.969,0,0,1,5-1.4,13.066,13.066,0,0,1,4.954.832c.18,1.192.444,2.828.715,4.157Z" transform="translate(-55.36 0)" fill="#393332"/>
      <rect id="長方形_3" data-name="長方形 3" width="3.013" height="21.206" transform="translate(80.169 0.405)" fill="#393332"/>
      <path id="パス_3" data-name="パス 3" d="M212.748,14.186h2.742v2.461h.06a5.516,5.516,0,0,1,5.032-2.826c3.977,0,5.755,2.491,5.755,6.654V29.68H223.5V21.66c0-3.615-.783-5.378-3.254-5.53-3.224,0-4.67,2.613-4.67,6.38v7.17h-2.832Z" transform="translate(-125.708 -8.069)" fill="#393332"/>
      <path id="パス_4" data-name="パス 4" d="M259.1,10.7h-4.068v8.476c0,1.793,1.085,2.765,2.38,2.765a3.476,3.476,0,0,0,1.928-.547v2.431a8.805,8.805,0,0,1-2.41.425c-2.923,0-4.73-1.4-4.73-4.5V10.7h-3.465V8.39H252.2V4.805l2.832-.911v4.5H259.1Z" transform="translate(-146.842 -2.273)" fill="#393332"/>
      <path id="パス_5" data-name="パス 5" d="M292.767,30.191h-2.742V27.73h-.06a5.516,5.516,0,0,1-5.032,2.826c-3.977,0-5.755-2.491-5.755-6.654V14.7h2.833v8.021c0,3.615.783,5.377,3.254,5.529,3.224,0,4.67-2.613,4.67-6.38V14.7h2.832Z" transform="translate(-164.719 -8.58)" fill="#393332"/>
      <path id="パス_6" data-name="パス 6" d="M324.13,3.242h-3.194V.021h3.194Zm-3.013,2.888h2.832V21.624h-2.832Z" transform="translate(-189.242 -0.012)" fill="#393332"/>
      <path id="パス_7" data-name="パス 7" d="M342.543,10.7h-4.068v8.476c0,1.793,1.085,2.765,2.38,2.765a3.475,3.475,0,0,0,1.928-.547v2.431a8.805,8.805,0,0,1-2.41.425c-2.923,0-4.73-1.4-4.73-4.5V10.7h-3.465V8.39h3.465V4.805l2.832-.911v4.5h4.068Z" transform="translate(-195.844 -2.273)" fill="#393332"/>
      <path id="パス_8" data-name="パス 8" d="M366.252,3.242h-3.194V.021h3.194Zm-3.013,2.888h2.832V21.624h-2.832Z" transform="translate(-213.978 -0.012)" fill="#393332"/>
      <path id="パス_9" data-name="パス 9" d="M384.38,13.822c4.67,0,7.8,3.4,7.8,8.112a7.824,7.824,0,1,1-15.637,0c0-4.709,3.134-8.112,7.833-8.112m0,13.915c3.314,0,4.791-3.038,4.791-5.8,0-2.947-1.778-5.8-4.791-5.8-3.043,0-4.821,2.856-4.821,5.8,0,2.765,1.477,5.8,4.821,5.8" transform="translate(-221.899 -8.069)" fill="#393332"/>
      <path id="パス_10" data-name="パス 10" d="M420.349,14.186h2.742v2.461h.06a5.516,5.516,0,0,1,5.032-2.826c3.977,0,5.755,2.491,5.755,6.654V29.68h-2.833V21.66c0-3.615-.783-5.378-3.254-5.53-3.224,0-4.67,2.613-4.67,6.38v7.17h-2.832Z" transform="translate(-247.622 -8.069)" fill="#393332"/>
      <path id="パス_11" data-name="パス 11" d="M458.7,26.642a7.518,7.518,0,0,0,3.525,1.094c1.3,0,2.893-.546,2.893-2.218,0-2.825-6.659-2.582-6.659-6.927,0-3.221,2.381-4.77,5.423-4.77a11.737,11.737,0,0,1,3.525.608l-.241,2.491a8.222,8.222,0,0,0-2.983-.79c-1.446,0-2.712.608-2.712,1.884,0,3.159,6.659,2.248,6.659,7.2,0,3.312-2.622,4.831-5.364,4.831a8.769,8.769,0,0,1-4.218-.851Z" transform="translate(-270.001 -8.069)" fill="#393332"/>
    </g>
  </g>
</svg>
